<svg xmlns="http://www.w3.org/2000/svg" xmlns:xlink="http://www.w3.org/1999/xlink" width="500" zoomAndPan="magnify" viewBox="0 0 375 374.999991" height="500" preserveAspectRatio="xMidYMid meet" version="1.0"><defs><g/><clipPath id="e511a2f560"><path d="M 33 76 L 175 76 L 175 177 L 33 177 Z M 33 76 " clip-rule="nonzero"/></clipPath><clipPath id="fc9caa74b7"><path d="M 204.859375 71.832031 L 143.339844 194.992188 L 0.871094 123.832031 L 62.390625 0.667969 Z M 204.859375 71.832031 " clip-rule="nonzero"/></clipPath><clipPath id="a771d1ba75"><path d="M 204.859375 71.832031 L 143.339844 194.992188 L 0.871094 123.832031 L 62.390625 0.667969 Z M 204.859375 71.832031 " clip-rule="nonzero"/></clipPath><clipPath id="39370b2ae6"><path d="M 31 18 L 171 18 L 171 110 L 31 110 Z M 31 18 " clip-rule="nonzero"/></clipPath><clipPath id="e7be21f146"><path d="M 204.859375 71.832031 L 143.339844 194.992188 L 0.871094 123.832031 L 62.390625 0.667969 Z M 204.859375 71.832031 " clip-rule="nonzero"/></clipPath><clipPath id="874e4e4385"><path d="M 204.859375 71.832031 L 143.339844 194.992188 L 0.871094 123.832031 L 62.390625 0.667969 Z M 204.859375 71.832031 " clip-rule="nonzero"/></clipPath><clipPath id="59f413c3d2"><rect x="0" width="192" y="0" height="66"/></clipPath><clipPath id="f52bca2e45"><path d="M 58 225 L 169 225 L 169 243.839844 L 58 243.839844 Z M 58 225 " clip-rule="nonzero"/></clipPath><clipPath id="5f539f8908"><rect x="0" width="111" y="0" height="19"/></clipPath><clipPath id="4bef52093d"><rect x="0" width="205" y="0" height="244"/></clipPath></defs><g transform="matrix(1, 0, 0, 1, 80, 66)"><g clip-path="url(#4bef52093d)"><g clip-path="url(#e511a2f560)"><g clip-path="url(#fc9caa74b7)"><g clip-path="url(#a771d1ba75)"><path fill="#ffffff" d="M 174.117188 133.265625 L 107.378906 176.941406 L 36.898438 141.734375 L 35.703125 118.960938 L 95.542969 148.851562 L 95.652344 138.386719 L 35.128906 108.15625 L 33.527344 85.183594 L 103.605469 120.1875 L 169.78125 76.484375 L 172.066406 100.367188 L 115.214844 136.785156 L 116.128906 147.480469 L 171.84375 111.058594 Z M 174.117188 133.265625 " fill-opacity="1" fill-rule="nonzero"/></g></g></g><g clip-path="url(#39370b2ae6)"><g clip-path="url(#e7be21f146)"><g clip-path="url(#874e4e4385)"><path fill="#ffffff" d="M 170.007812 65.792969 L 169.09375 53.964844 L 128.621094 33.75 L 71.738281 71.292969 L 62.234375 66.542969 L 118.355469 28.621094 L 98.160156 18.535156 L 31.929688 62.207031 L 32.527344 73.738281 L 73.214844 94.0625 L 130.082031 56.652344 L 138.839844 61.03125 L 83.40625 99.152344 L 103.769531 109.324219 Z M 170.007812 65.792969 " fill-opacity="1" fill-rule="nonzero"/></g></g></g><g transform="matrix(1, 0, 0, 1, 11, 172)"><g clip-path="url(#59f413c3d2)"><g fill="#ffffff" fill-opacity="1"><g transform="translate(1.156429, 48.216348)"><g><path d="M 14.453125 0.375 C 13.484375 0.375 12.738281 0.101562 12.21875 -0.4375 C 11.707031 -0.988281 11.453125 -1.765625 11.453125 -2.765625 L 11.453125 -16.96875 L 12.71875 -13.375 L 1.453125 -29.234375 C 1.046875 -29.785156 0.863281 -30.378906 0.90625 -31.015625 C 0.957031 -31.660156 1.21875 -32.207031 1.6875 -32.65625 C 2.15625 -33.113281 2.804688 -33.34375 3.640625 -33.34375 C 4.265625 -33.34375 4.832031 -33.1875 5.34375 -32.875 C 5.863281 -32.5625 6.359375 -32.078125 6.828125 -31.421875 L 15.203125 -19.546875 L 13.890625 -19.546875 L 22.3125 -31.421875 C 22.8125 -32.109375 23.289062 -32.597656 23.75 -32.890625 C 24.21875 -33.191406 24.796875 -33.34375 25.484375 -33.34375 C 26.296875 -33.34375 26.925781 -33.128906 27.375 -32.703125 C 27.832031 -32.285156 28.066406 -31.765625 28.078125 -31.140625 C 28.097656 -30.515625 27.875 -29.863281 27.40625 -29.1875 L 16.234375 -13.375 L 17.4375 -16.96875 L 17.4375 -2.765625 C 17.4375 -0.671875 16.441406 0.375 14.453125 0.375 Z M 14.453125 0.375 "/></g></g></g><g fill="#ffffff" fill-opacity="1"><g transform="translate(30.058966, 48.216348)"><g><path d="M 17.296875 0.46875 C 15.023438 0.46875 13.023438 0.171875 11.296875 -0.421875 C 9.566406 -1.015625 8.109375 -1.894531 6.921875 -3.0625 C 5.734375 -4.226562 4.84375 -5.679688 4.25 -7.421875 C 3.65625 -9.171875 3.359375 -11.203125 3.359375 -13.515625 L 3.359375 -30.296875 C 3.359375 -31.328125 3.613281 -32.09375 4.125 -32.59375 C 4.644531 -33.09375 5.390625 -33.34375 6.359375 -33.34375 C 7.328125 -33.34375 8.066406 -33.09375 8.578125 -32.59375 C 9.097656 -32.09375 9.359375 -31.328125 9.359375 -30.296875 L 9.359375 -13.5625 C 9.359375 -10.601562 10.035156 -8.378906 11.390625 -6.890625 C 12.742188 -5.410156 14.710938 -4.671875 17.296875 -4.671875 C 19.890625 -4.671875 21.851562 -5.410156 23.1875 -6.890625 C 24.53125 -8.378906 25.203125 -10.601562 25.203125 -13.5625 L 25.203125 -30.296875 C 25.203125 -31.328125 25.457031 -32.09375 25.96875 -32.59375 C 26.488281 -33.09375 27.234375 -33.34375 28.203125 -33.34375 C 29.140625 -33.34375 29.863281 -33.09375 30.375 -32.59375 C 30.882812 -32.09375 31.140625 -31.328125 31.140625 -30.296875 L 31.140625 -13.515625 C 31.140625 -10.460938 30.617188 -7.890625 29.578125 -5.796875 C 28.535156 -3.710938 26.984375 -2.144531 24.921875 -1.09375 C 22.867188 -0.0507812 20.328125 0.46875 17.296875 0.46875 Z M 17.296875 0.46875 "/></g></g></g><g fill="#ffffff" fill-opacity="1"><g transform="translate(64.573645, 48.216348)"><g><path d="M 6.59375 0.375 C 5.625 0.375 4.878906 0.101562 4.359375 -0.4375 C 3.847656 -0.988281 3.59375 -1.75 3.59375 -2.71875 L 3.59375 -29.9375 C 3.59375 -30.925781 3.859375 -31.675781 4.390625 -32.1875 C 4.921875 -32.707031 5.671875 -32.96875 6.640625 -32.96875 L 17.90625 -32.96875 C 21.53125 -32.96875 24.320312 -32.101562 26.28125 -30.375 C 28.25 -28.644531 29.234375 -26.222656 29.234375 -23.109375 C 29.234375 -21.078125 28.785156 -19.328125 27.890625 -17.859375 C 27.003906 -16.398438 25.71875 -15.28125 24.03125 -14.5 C 22.351562 -13.71875 20.3125 -13.328125 17.90625 -13.328125 L 18.328125 -14.03125 L 19.875 -14.03125 C 21.15625 -14.03125 22.269531 -13.71875 23.21875 -13.09375 C 24.164062 -12.46875 25 -11.484375 25.71875 -10.140625 L 29.234375 -3.640625 C 29.609375 -2.992188 29.78125 -2.359375 29.75 -1.734375 C 29.71875 -1.109375 29.484375 -0.597656 29.046875 -0.203125 C 28.609375 0.179688 27.96875 0.375 27.125 0.375 C 26.28125 0.375 25.59375 0.195312 25.0625 -0.15625 C 24.53125 -0.519531 24.0625 -1.078125 23.65625 -1.828125 L 18.9375 -10.515625 C 18.375 -11.578125 17.710938 -12.285156 16.953125 -12.640625 C 16.191406 -13.003906 15.21875 -13.1875 14.03125 -13.1875 L 9.59375 -13.1875 L 9.59375 -2.71875 C 9.59375 -1.75 9.34375 -0.988281 8.84375 -0.4375 C 8.34375 0.101562 7.59375 0.375 6.59375 0.375 Z M 9.59375 -17.625 L 16.875 -17.625 C 19.03125 -17.625 20.660156 -18.066406 21.765625 -18.953125 C 22.867188 -19.847656 23.421875 -21.1875 23.421875 -22.96875 C 23.421875 -24.707031 22.867188 -26.019531 21.765625 -26.90625 C 20.660156 -27.800781 19.03125 -28.25 16.875 -28.25 L 9.59375 -28.25 Z M 9.59375 -17.625 "/></g></g></g><g fill="#ffffff" fill-opacity="1"><g transform="translate(96.656398, 48.216348)"><g><path d="M 6.78125 0 C 5.75 0 4.957031 -0.269531 4.40625 -0.8125 C 3.863281 -1.363281 3.59375 -2.15625 3.59375 -3.1875 L 3.59375 -29.796875 C 3.59375 -30.816406 3.863281 -31.597656 4.40625 -32.140625 C 4.957031 -32.691406 5.75 -32.96875 6.78125 -32.96875 L 23.46875 -32.96875 C 24.25 -32.96875 24.847656 -32.765625 25.265625 -32.359375 C 25.691406 -31.953125 25.90625 -31.375 25.90625 -30.625 C 25.90625 -29.851562 25.691406 -29.253906 25.265625 -28.828125 C 24.847656 -28.410156 24.25 -28.203125 23.46875 -28.203125 L 9.359375 -28.203125 L 9.359375 -19.125 L 22.453125 -19.125 C 23.253906 -19.125 23.859375 -18.921875 24.265625 -18.515625 C 24.671875 -18.109375 24.875 -17.515625 24.875 -16.734375 C 24.875 -15.960938 24.671875 -15.375 24.265625 -14.96875 C 23.859375 -14.5625 23.253906 -14.359375 22.453125 -14.359375 L 9.359375 -14.359375 L 9.359375 -4.765625 L 23.46875 -4.765625 C 24.25 -4.765625 24.847656 -4.5625 25.265625 -4.15625 C 25.691406 -3.75 25.90625 -3.160156 25.90625 -2.390625 C 25.90625 -1.609375 25.691406 -1.015625 25.265625 -0.609375 C 24.847656 -0.203125 24.25 0 23.46875 0 Z M 6.78125 0 "/></g></g></g><g fill="#ffffff" fill-opacity="1"><g transform="translate(124.576813, 48.216348)"><g><path d="M 6.59375 0.375 C 5.625 0.375 4.878906 0.101562 4.359375 -0.4375 C 3.847656 -0.988281 3.59375 -1.75 3.59375 -2.71875 L 3.59375 -30.296875 C 3.59375 -31.296875 3.847656 -32.050781 4.359375 -32.5625 C 4.878906 -33.082031 5.625 -33.34375 6.59375 -33.34375 C 7.5625 -33.34375 8.300781 -33.082031 8.8125 -32.5625 C 9.332031 -32.050781 9.59375 -31.296875 9.59375 -30.296875 L 9.59375 -18.375 L 9.6875 -18.375 L 23.109375 -31.84375 C 23.597656 -32.34375 24.09375 -32.71875 24.59375 -32.96875 C 25.09375 -33.21875 25.65625 -33.34375 26.28125 -33.34375 C 27.1875 -33.34375 27.832031 -33.109375 28.21875 -32.640625 C 28.613281 -32.171875 28.769531 -31.625 28.6875 -31 C 28.613281 -30.375 28.3125 -29.800781 27.78125 -29.28125 L 14.125 -15.765625 L 14.171875 -18.46875 L 28.4375 -3.96875 C 29.09375 -3.351562 29.4375 -2.703125 29.46875 -2.015625 C 29.5 -1.328125 29.285156 -0.753906 28.828125 -0.296875 C 28.378906 0.148438 27.71875 0.375 26.84375 0.375 C 26.09375 0.375 25.488281 0.21875 25.03125 -0.09375 C 24.582031 -0.40625 24.0625 -0.859375 23.46875 -1.453125 L 9.6875 -15.25 L 9.59375 -15.25 L 9.59375 -2.71875 C 9.59375 -1.75 9.34375 -0.988281 8.84375 -0.4375 C 8.34375 0.101562 7.59375 0.375 6.59375 0.375 Z M 6.59375 0.375 "/></g></g></g><g fill="#ffffff" fill-opacity="1"><g transform="translate(155.677445, 48.216348)"><g><path d="M 6.59375 0.375 C 5.625 0.375 4.878906 0.101562 4.359375 -0.4375 C 3.847656 -0.988281 3.59375 -1.75 3.59375 -2.71875 L 3.59375 -30.25 C 3.59375 -31.25 3.847656 -32.015625 4.359375 -32.546875 C 4.878906 -33.078125 5.625 -33.34375 6.59375 -33.34375 C 7.5625 -33.34375 8.300781 -33.078125 8.8125 -32.546875 C 9.332031 -32.015625 9.59375 -31.25 9.59375 -30.25 L 9.59375 -19.21875 L 26.5625 -19.21875 L 26.5625 -30.25 C 26.5625 -31.25 26.816406 -32.015625 27.328125 -32.546875 C 27.847656 -33.078125 28.59375 -33.34375 29.5625 -33.34375 C 30.519531 -33.34375 31.253906 -33.078125 31.765625 -32.546875 C 32.285156 -32.015625 32.546875 -31.25 32.546875 -30.25 L 32.546875 -2.71875 C 32.546875 -1.75 32.285156 -0.988281 31.765625 -0.4375 C 31.253906 0.101562 30.519531 0.375 29.5625 0.375 C 28.59375 0.375 27.847656 0.101562 27.328125 -0.4375 C 26.816406 -0.988281 26.5625 -1.75 26.5625 -2.71875 L 26.5625 -14.21875 L 9.59375 -14.21875 L 9.59375 -2.71875 C 9.59375 -1.75 9.34375 -0.988281 8.84375 -0.4375 C 8.34375 0.101562 7.59375 0.375 6.59375 0.375 Z M 6.59375 0.375 "/></g></g></g></g></g><g clip-path="url(#f52bca2e45)"><g transform="matrix(1, 0, 0, 1, 58, 225)"><g clip-path="url(#5f539f8908)"><g fill="#ffffff" fill-opacity="1"><g transform="translate(1.602572, 12.944926)"><g><path d="M 4.34375 0.140625 C 3.945312 0.140625 3.546875 0.109375 3.140625 0.046875 C 2.742188 -0.015625 2.367188 -0.101562 2.015625 -0.21875 C 1.671875 -0.34375 1.359375 -0.492188 1.078125 -0.671875 C 0.910156 -0.785156 0.796875 -0.914062 0.734375 -1.0625 C 0.671875 -1.21875 0.648438 -1.367188 0.671875 -1.515625 C 0.691406 -1.671875 0.75 -1.804688 0.84375 -1.921875 C 0.9375 -2.035156 1.054688 -2.101562 1.203125 -2.125 C 1.347656 -2.15625 1.507812 -2.117188 1.6875 -2.015625 C 2.082031 -1.773438 2.5 -1.597656 2.9375 -1.484375 C 3.382812 -1.378906 3.851562 -1.328125 4.34375 -1.328125 C 5.0625 -1.328125 5.582031 -1.445312 5.90625 -1.6875 C 6.226562 -1.925781 6.390625 -2.238281 6.390625 -2.625 C 6.390625 -2.9375 6.273438 -3.179688 6.046875 -3.359375 C 5.816406 -3.546875 5.421875 -3.695312 4.859375 -3.8125 L 3.375 -4.125 C 2.507812 -4.3125 1.863281 -4.617188 1.4375 -5.046875 C 1.019531 -5.472656 0.8125 -6.039062 0.8125 -6.75 C 0.8125 -7.1875 0.898438 -7.585938 1.078125 -7.953125 C 1.265625 -8.316406 1.519531 -8.628906 1.84375 -8.890625 C 2.175781 -9.148438 2.570312 -9.347656 3.03125 -9.484375 C 3.488281 -9.628906 3.992188 -9.703125 4.546875 -9.703125 C 5.085938 -9.703125 5.601562 -9.632812 6.09375 -9.5 C 6.582031 -9.363281 7.019531 -9.164062 7.40625 -8.90625 C 7.550781 -8.8125 7.648438 -8.691406 7.703125 -8.546875 C 7.753906 -8.398438 7.765625 -8.253906 7.734375 -8.109375 C 7.710938 -7.972656 7.648438 -7.851562 7.546875 -7.75 C 7.453125 -7.65625 7.328125 -7.597656 7.171875 -7.578125 C 7.023438 -7.554688 6.859375 -7.601562 6.671875 -7.71875 C 6.335938 -7.90625 5.992188 -8.035156 5.640625 -8.109375 C 5.296875 -8.191406 4.925781 -8.234375 4.53125 -8.234375 C 4.113281 -8.234375 3.753906 -8.175781 3.453125 -8.0625 C 3.160156 -7.945312 2.9375 -7.78125 2.78125 -7.5625 C 2.625 -7.351562 2.546875 -7.101562 2.546875 -6.8125 C 2.546875 -6.488281 2.648438 -6.226562 2.859375 -6.03125 C 3.078125 -5.84375 3.453125 -5.691406 3.984375 -5.578125 L 5.453125 -5.265625 C 6.347656 -5.078125 7.015625 -4.78125 7.453125 -4.375 C 7.898438 -3.96875 8.125 -3.425781 8.125 -2.75 C 8.125 -2.3125 8.035156 -1.914062 7.859375 -1.5625 C 7.679688 -1.207031 7.425781 -0.898438 7.09375 -0.640625 C 6.757812 -0.390625 6.363281 -0.195312 5.90625 -0.0625 C 5.445312 0.0703125 4.925781 0.140625 4.34375 0.140625 Z M 4.34375 0.140625 "/></g></g></g><g fill="#ffffff" fill-opacity="1"><g transform="translate(13.457764, 12.944926)"><g><path d="M 5.34375 0.140625 C 4.414062 0.140625 3.601562 -0.0625 2.90625 -0.46875 C 2.21875 -0.882812 1.679688 -1.457031 1.296875 -2.1875 C 0.921875 -2.925781 0.734375 -3.796875 0.734375 -4.796875 C 0.734375 -5.546875 0.84375 -6.21875 1.0625 -6.8125 C 1.28125 -7.414062 1.585938 -7.929688 1.984375 -8.359375 C 2.390625 -8.796875 2.875 -9.128906 3.4375 -9.359375 C 4.007812 -9.585938 4.644531 -9.703125 5.34375 -9.703125 C 6.269531 -9.703125 7.078125 -9.5 7.765625 -9.09375 C 8.453125 -8.695312 8.984375 -8.128906 9.359375 -7.390625 C 9.742188 -6.660156 9.9375 -5.800781 9.9375 -4.8125 C 9.9375 -4.050781 9.828125 -3.367188 9.609375 -2.765625 C 9.390625 -2.160156 9.078125 -1.640625 8.671875 -1.203125 C 8.273438 -0.773438 7.789062 -0.441406 7.21875 -0.203125 C 6.65625 0.0234375 6.03125 0.140625 5.34375 0.140625 Z M 5.34375 -1.359375 C 5.925781 -1.359375 6.421875 -1.492188 6.828125 -1.765625 C 7.242188 -2.035156 7.5625 -2.425781 7.78125 -2.9375 C 8.007812 -3.457031 8.125 -4.078125 8.125 -4.796875 C 8.125 -5.878906 7.878906 -6.71875 7.390625 -7.3125 C 6.910156 -7.914062 6.226562 -8.21875 5.34375 -8.21875 C 4.757812 -8.21875 4.257812 -8.082031 3.84375 -7.8125 C 3.425781 -7.539062 3.101562 -7.148438 2.875 -6.640625 C 2.65625 -6.128906 2.546875 -5.515625 2.546875 -4.796875 C 2.546875 -3.710938 2.789062 -2.867188 3.28125 -2.265625 C 3.769531 -1.660156 4.457031 -1.359375 5.34375 -1.359375 Z M 5.34375 -1.359375 "/></g></g></g><g fill="#ffffff" fill-opacity="1"><g transform="translate(27.404201, 12.944926)"><g><path d="M 1.921875 0 C 1.640625 0 1.421875 -0.078125 1.265625 -0.234375 C 1.117188 -0.390625 1.046875 -0.609375 1.046875 -0.890625 L 1.046875 -8.734375 C 1.046875 -9.023438 1.117188 -9.242188 1.265625 -9.390625 C 1.421875 -9.535156 1.640625 -9.609375 1.921875 -9.609375 C 2.191406 -9.609375 2.398438 -9.535156 2.546875 -9.390625 C 2.703125 -9.242188 2.78125 -9.023438 2.78125 -8.734375 L 2.78125 -1.484375 L 6.71875 -1.484375 C 6.96875 -1.484375 7.15625 -1.414062 7.28125 -1.28125 C 7.414062 -1.15625 7.484375 -0.976562 7.484375 -0.75 C 7.484375 -0.507812 7.414062 -0.320312 7.28125 -0.1875 C 7.15625 -0.0625 6.96875 0 6.71875 0 Z M 1.921875 0 "/></g></g></g><g fill="#ffffff" fill-opacity="1"><g transform="translate(38.322407, 12.944926)"><g><path d="M 5.03125 0.140625 C 4.363281 0.140625 3.78125 0.0546875 3.28125 -0.109375 C 2.78125 -0.285156 2.359375 -0.546875 2.015625 -0.890625 C 1.671875 -1.234375 1.410156 -1.65625 1.234375 -2.15625 C 1.066406 -2.664062 0.984375 -3.253906 0.984375 -3.921875 L 0.984375 -8.796875 C 0.984375 -9.097656 1.054688 -9.320312 1.203125 -9.46875 C 1.347656 -9.613281 1.5625 -9.6875 1.84375 -9.6875 C 2.125 -9.6875 2.335938 -9.613281 2.484375 -9.46875 C 2.640625 -9.320312 2.71875 -9.097656 2.71875 -8.796875 L 2.71875 -3.9375 C 2.71875 -3.070312 2.910156 -2.425781 3.296875 -2 C 3.691406 -1.570312 4.269531 -1.359375 5.03125 -1.359375 C 5.78125 -1.359375 6.347656 -1.570312 6.734375 -2 C 7.117188 -2.425781 7.3125 -3.070312 7.3125 -3.9375 L 7.3125 -8.796875 C 7.3125 -9.097656 7.382812 -9.320312 7.53125 -9.46875 C 7.6875 -9.613281 7.90625 -9.6875 8.1875 -9.6875 C 8.457031 -9.6875 8.664062 -9.613281 8.8125 -9.46875 C 8.96875 -9.320312 9.046875 -9.097656 9.046875 -8.796875 L 9.046875 -3.921875 C 9.046875 -3.035156 8.894531 -2.289062 8.59375 -1.6875 C 8.289062 -1.082031 7.835938 -0.625 7.234375 -0.3125 C 6.640625 -0.0078125 5.90625 0.140625 5.03125 0.140625 Z M 5.03125 0.140625 "/></g></g></g><g fill="#ffffff" fill-opacity="1"><g transform="translate(51.630615, 12.944926)"><g><path d="M 4.21875 0.109375 C 3.9375 0.109375 3.722656 0.03125 3.578125 -0.125 C 3.429688 -0.28125 3.359375 -0.5 3.359375 -0.78125 L 3.359375 -8.125 L 0.703125 -8.125 C 0.472656 -8.125 0.289062 -8.1875 0.15625 -8.3125 C 0.0195312 -8.445312 -0.046875 -8.628906 -0.046875 -8.859375 C -0.046875 -9.085938 0.0195312 -9.265625 0.15625 -9.390625 C 0.289062 -9.515625 0.472656 -9.578125 0.703125 -9.578125 L 7.734375 -9.578125 C 7.972656 -9.578125 8.15625 -9.515625 8.28125 -9.390625 C 8.414062 -9.265625 8.484375 -9.085938 8.484375 -8.859375 C 8.484375 -8.628906 8.414062 -8.445312 8.28125 -8.3125 C 8.15625 -8.1875 7.972656 -8.125 7.734375 -8.125 L 5.09375 -8.125 L 5.09375 -0.78125 C 5.09375 -0.5 5.019531 -0.28125 4.875 -0.125 C 4.726562 0.03125 4.507812 0.109375 4.21875 0.109375 Z M 4.21875 0.109375 "/></g></g></g><g fill="#ffffff" fill-opacity="1"><g transform="translate(63.350018, 12.944926)"><g><path d="M 1.921875 0.109375 C 1.640625 0.109375 1.421875 0.03125 1.265625 -0.125 C 1.117188 -0.28125 1.046875 -0.5 1.046875 -0.78125 L 1.046875 -8.78125 C 1.046875 -9.070312 1.117188 -9.296875 1.265625 -9.453125 C 1.421875 -9.609375 1.640625 -9.6875 1.921875 -9.6875 C 2.191406 -9.6875 2.398438 -9.609375 2.546875 -9.453125 C 2.703125 -9.296875 2.78125 -9.070312 2.78125 -8.78125 L 2.78125 -0.78125 C 2.78125 -0.5 2.707031 -0.28125 2.5625 -0.125 C 2.414062 0.03125 2.203125 0.109375 1.921875 0.109375 Z M 1.921875 0.109375 "/></g></g></g><g fill="#ffffff" fill-opacity="1"><g transform="translate(70.465941, 12.944926)"><g><path d="M 5.34375 0.140625 C 4.414062 0.140625 3.601562 -0.0625 2.90625 -0.46875 C 2.21875 -0.882812 1.679688 -1.457031 1.296875 -2.1875 C 0.921875 -2.925781 0.734375 -3.796875 0.734375 -4.796875 C 0.734375 -5.546875 0.84375 -6.21875 1.0625 -6.8125 C 1.28125 -7.414062 1.585938 -7.929688 1.984375 -8.359375 C 2.390625 -8.796875 2.875 -9.128906 3.4375 -9.359375 C 4.007812 -9.585938 4.644531 -9.703125 5.34375 -9.703125 C 6.269531 -9.703125 7.078125 -9.5 7.765625 -9.09375 C 8.453125 -8.695312 8.984375 -8.128906 9.359375 -7.390625 C 9.742188 -6.660156 9.9375 -5.800781 9.9375 -4.8125 C 9.9375 -4.050781 9.828125 -3.367188 9.609375 -2.765625 C 9.390625 -2.160156 9.078125 -1.640625 8.671875 -1.203125 C 8.273438 -0.773438 7.789062 -0.441406 7.21875 -0.203125 C 6.65625 0.0234375 6.03125 0.140625 5.34375 0.140625 Z M 5.34375 -1.359375 C 5.925781 -1.359375 6.421875 -1.492188 6.828125 -1.765625 C 7.242188 -2.035156 7.5625 -2.425781 7.78125 -2.9375 C 8.007812 -3.457031 8.125 -4.078125 8.125 -4.796875 C 8.125 -5.878906 7.878906 -6.71875 7.390625 -7.3125 C 6.910156 -7.914062 6.226562 -8.21875 5.34375 -8.21875 C 4.757812 -8.21875 4.257812 -8.082031 3.84375 -7.8125 C 3.425781 -7.539062 3.101562 -7.148438 2.875 -6.640625 C 2.65625 -6.128906 2.546875 -5.515625 2.546875 -4.796875 C 2.546875 -3.710938 2.789062 -2.867188 3.28125 -2.265625 C 3.769531 -1.660156 4.457031 -1.359375 5.34375 -1.359375 Z M 5.34375 -1.359375 "/></g></g></g><g fill="#ffffff" fill-opacity="1"><g transform="translate(84.412378, 12.944926)"><g><path d="M 1.859375 0.109375 C 1.597656 0.109375 1.394531 0.0351562 1.25 -0.109375 C 1.113281 -0.253906 1.046875 -0.460938 1.046875 -0.734375 L 1.046875 -8.8125 C 1.046875 -9.09375 1.113281 -9.304688 1.25 -9.453125 C 1.394531 -9.609375 1.582031 -9.6875 1.8125 -9.6875 C 2.019531 -9.6875 2.175781 -9.644531 2.28125 -9.5625 C 2.382812 -9.488281 2.503906 -9.359375 2.640625 -9.171875 L 7.84375 -2.4375 L 7.5 -2.4375 L 7.5 -8.859375 C 7.5 -9.117188 7.566406 -9.320312 7.703125 -9.46875 C 7.847656 -9.613281 8.050781 -9.6875 8.3125 -9.6875 C 8.570312 -9.6875 8.769531 -9.613281 8.90625 -9.46875 C 9.039062 -9.320312 9.109375 -9.117188 9.109375 -8.859375 L 9.109375 -0.703125 C 9.109375 -0.453125 9.046875 -0.253906 8.921875 -0.109375 C 8.796875 0.0351562 8.625 0.109375 8.40625 0.109375 C 8.195312 0.109375 8.03125 0.0664062 7.90625 -0.015625 C 7.78125 -0.0976562 7.648438 -0.226562 7.515625 -0.40625 L 2.328125 -7.15625 L 2.65625 -7.15625 L 2.65625 -0.734375 C 2.65625 -0.460938 2.585938 -0.253906 2.453125 -0.109375 C 2.316406 0.0351562 2.117188 0.109375 1.859375 0.109375 Z M 1.859375 0.109375 "/></g></g></g><g fill="#ffffff" fill-opacity="1"><g transform="translate(97.856375, 12.944926)"><g><path d="M 4.34375 0.140625 C 3.945312 0.140625 3.546875 0.109375 3.140625 0.046875 C 2.742188 -0.015625 2.367188 -0.101562 2.015625 -0.21875 C 1.671875 -0.34375 1.359375 -0.492188 1.078125 -0.671875 C 0.910156 -0.785156 0.796875 -0.914062 0.734375 -1.0625 C 0.671875 -1.21875 0.648438 -1.367188 0.671875 -1.515625 C 0.691406 -1.671875 0.75 -1.804688 0.84375 -1.921875 C 0.9375 -2.035156 1.054688 -2.101562 1.203125 -2.125 C 1.347656 -2.15625 1.507812 -2.117188 1.6875 -2.015625 C 2.082031 -1.773438 2.5 -1.597656 2.9375 -1.484375 C 3.382812 -1.378906 3.851562 -1.328125 4.34375 -1.328125 C 5.0625 -1.328125 5.582031 -1.445312 5.90625 -1.6875 C 6.226562 -1.925781 6.390625 -2.238281 6.390625 -2.625 C 6.390625 -2.9375 6.273438 -3.179688 6.046875 -3.359375 C 5.816406 -3.546875 5.421875 -3.695312 4.859375 -3.8125 L 3.375 -4.125 C 2.507812 -4.3125 1.863281 -4.617188 1.4375 -5.046875 C 1.019531 -5.472656 0.8125 -6.039062 0.8125 -6.75 C 0.8125 -7.1875 0.898438 -7.585938 1.078125 -7.953125 C 1.265625 -8.316406 1.519531 -8.628906 1.84375 -8.890625 C 2.175781 -9.148438 2.570312 -9.347656 3.03125 -9.484375 C 3.488281 -9.628906 3.992188 -9.703125 4.546875 -9.703125 C 5.085938 -9.703125 5.601562 -9.632812 6.09375 -9.5 C 6.582031 -9.363281 7.019531 -9.164062 7.40625 -8.90625 C 7.550781 -8.8125 7.648438 -8.691406 7.703125 -8.546875 C 7.753906 -8.398438 7.765625 -8.253906 7.734375 -8.109375 C 7.710938 -7.972656 7.648438 -7.851562 7.546875 -7.75 C 7.453125 -7.65625 7.328125 -7.597656 7.171875 -7.578125 C 7.023438 -7.554688 6.859375 -7.601562 6.671875 -7.71875 C 6.335938 -7.90625 5.992188 -8.035156 5.640625 -8.109375 C 5.296875 -8.191406 4.925781 -8.234375 4.53125 -8.234375 C 4.113281 -8.234375 3.753906 -8.175781 3.453125 -8.0625 C 3.160156 -7.945312 2.9375 -7.78125 2.78125 -7.5625 C 2.625 -7.351562 2.546875 -7.101562 2.546875 -6.8125 C 2.546875 -6.488281 2.648438 -6.226562 2.859375 -6.03125 C 3.078125 -5.84375 3.453125 -5.691406 3.984375 -5.578125 L 5.453125 -5.265625 C 6.347656 -5.078125 7.015625 -4.78125 7.453125 -4.375 C 7.898438 -3.96875 8.125 -3.425781 8.125 -2.75 C 8.125 -2.3125 8.035156 -1.914062 7.859375 -1.5625 C 7.679688 -1.207031 7.425781 -0.898438 7.09375 -0.640625 C 6.757812 -0.390625 6.363281 -0.195312 5.90625 -0.0625 C 5.445312 0.0703125 4.925781 0.140625 4.34375 0.140625 Z M 4.34375 0.140625 "/></g></g></g></g></g></g></g></g></svg>